<svg xmlns="http://www.w3.org/2000/svg" id="Camada_2" data-name="Camada 2" viewBox="0 0 77.08 86.16"><defs><style>      .cls-1 {        fill: #fff;      }    </style></defs><g id="Camada_1-2" data-name="Camada 1"><path class="cls-1" d="m20.89,86.16h11.24c8.96,0,16.81-1.8,23.57-5.4,6.84-3.6,12.1-8.67,15.76-15.22,3.75-6.55,5.62-14.03,5.62-22.46,0-3.11-.25-6.08-.75-8.92h-21.27c.55,2.89.77,5.65.77,8.92,0,7.94-2.2,14.07-6.6,18.41-4.4,4.34-10.55,6.5-18.45,6.5H0V0h32.13c1.31,0,2.6.04,3.87.12v18.04c-1.64-.24-3.39-.24-5.22-.24h-9.89v68.24Z"></path></g></svg>